<mxfile host="Electron" modified="2023-12-12T01:48:16.854Z" agent="Mozilla/5.0 (X11; Linux x86_64) AppleWebKit/537.36 (KHTML, like Gecko) draw.io/22.1.2 Chrome/114.0.5735.289 Electron/25.9.4 Safari/537.36" etag="_qkg9U6tqp2_dF7ReDAK" compressed="false" version="22.1.2" type="device">
  <diagram name="Страница-1" id="Страница-1">
    <mxGraphModel dx="-38" dy="461" grid="1" gridSize="9.8425" guides="1" tooltips="1" connect="1" arrows="1" fold="1" page="1" pageScale="1" pageWidth="827" pageHeight="1169" math="0" shadow="0">
      <root>
        <mxCell id="0" />
        <mxCell id="tpW0L4eKJtAbM24Pp-hq-4" value="Границы" style="" parent="0" />
        <mxCell id="XYD-opMogOewsWYCsBqt-0" value="" style="rounded=0;whiteSpace=wrap;html=1;fillColor=none;strokeWidth=4;" parent="tpW0L4eKJtAbM24Pp-hq-4" vertex="1">
          <mxGeometry x="893.26" y="18" width="737.85" height="1131.89" as="geometry" />
        </mxCell>
        <mxCell id="XYD-opMogOewsWYCsBqt-1" value="" style="rounded=0;whiteSpace=wrap;html=1;strokeWidth=4;fillColor=none;" parent="tpW0L4eKJtAbM24Pp-hq-4" vertex="1">
          <mxGeometry x="893.26" y="18" width="275.59" height="55.12" as="geometry" />
        </mxCell>
        <mxCell id="ZWHlX_L_aykVCrJByL5k-2" value="&lt;font style=&quot;font-size: 14px;&quot;&gt;Маршрутизатор&lt;/font&gt;" style="rounded=0;whiteSpace=wrap;html=1;fontSize=22;strokeWidth=1;align=center;fontFamily=Arial;fontStyle=2" parent="tpW0L4eKJtAbM24Pp-hq-4" vertex="1">
          <mxGeometry x="1417.32" y="196.85" width="120.85" height="78.74" as="geometry" />
        </mxCell>
        <mxCell id="ZWHlX_L_aykVCrJByL5k-3" style="edgeStyle=orthogonalEdgeStyle;rounded=0;orthogonalLoop=1;jettySize=auto;html=1;entryX=0.5;entryY=1;entryDx=0;entryDy=0;startArrow=classic;startFill=1;" parent="tpW0L4eKJtAbM24Pp-hq-4" source="ZWHlX_L_aykVCrJByL5k-4" target="ZWHlX_L_aykVCrJByL5k-5" edge="1">
          <mxGeometry relative="1" as="geometry" />
        </mxCell>
        <mxCell id="ZWHlX_L_aykVCrJByL5k-4" value="&lt;font style=&quot;font-size: 14px;&quot;&gt;Точка доступа&lt;/font&gt;" style="rounded=0;whiteSpace=wrap;html=1;fontSize=22;strokeWidth=1;align=center;fontFamily=Arial;fontStyle=2" parent="tpW0L4eKJtAbM24Pp-hq-4" vertex="1">
          <mxGeometry x="984.25" y="354.33" width="118.11" height="80.42" as="geometry" />
        </mxCell>
        <mxCell id="ZWHlX_L_aykVCrJByL5k-5" value="&lt;font style=&quot;font-size: 14px;&quot;&gt;Беспроводные устройства&lt;/font&gt;" style="rounded=0;whiteSpace=wrap;html=1;fontSize=22;strokeWidth=1;align=center;fontFamily=Arial;fontStyle=2" parent="tpW0L4eKJtAbM24Pp-hq-4" vertex="1">
          <mxGeometry x="984.25" y="196.85" width="118.11" height="78.74" as="geometry" />
        </mxCell>
        <mxCell id="ZWHlX_L_aykVCrJByL5k-6" value="&lt;font style=&quot;font-size: 14px;&quot;&gt;Видеонаблюде-ние&lt;/font&gt;" style="rounded=0;whiteSpace=wrap;html=1;fontSize=22;strokeWidth=1;align=center;fontFamily=Arial;fontStyle=2" parent="tpW0L4eKJtAbM24Pp-hq-4" vertex="1">
          <mxGeometry x="1417.32" y="354.33" width="118.11" height="78.74" as="geometry" />
        </mxCell>
        <mxCell id="ZWHlX_L_aykVCrJByL5k-14" style="edgeStyle=orthogonalEdgeStyle;rounded=0;orthogonalLoop=1;jettySize=auto;html=1;entryX=1;entryY=0.5;entryDx=0;entryDy=0;startArrow=classic;startFill=1;" parent="tpW0L4eKJtAbM24Pp-hq-4" source="ZWHlX_L_aykVCrJByL5k-7" target="ZWHlX_L_aykVCrJByL5k-4" edge="1">
          <mxGeometry relative="1" as="geometry" />
        </mxCell>
        <mxCell id="PZikR7av2AhRdOscedBx-4" style="edgeStyle=orthogonalEdgeStyle;rounded=0;orthogonalLoop=1;jettySize=auto;html=1;entryX=0;entryY=0.5;entryDx=0;entryDy=0;exitX=0.5;exitY=0;exitDx=0;exitDy=0;startArrow=classic;startFill=1;" edge="1" parent="tpW0L4eKJtAbM24Pp-hq-4" source="ZWHlX_L_aykVCrJByL5k-7" target="ZWHlX_L_aykVCrJByL5k-2">
          <mxGeometry relative="1" as="geometry" />
        </mxCell>
        <mxCell id="PZikR7av2AhRdOscedBx-6" style="edgeStyle=orthogonalEdgeStyle;rounded=0;orthogonalLoop=1;jettySize=auto;html=1;entryX=0;entryY=0.5;entryDx=0;entryDy=0;" edge="1" parent="tpW0L4eKJtAbM24Pp-hq-4" source="ZWHlX_L_aykVCrJByL5k-7" target="ZWHlX_L_aykVCrJByL5k-10">
          <mxGeometry relative="1" as="geometry" />
        </mxCell>
        <mxCell id="PZikR7av2AhRdOscedBx-8" style="edgeStyle=orthogonalEdgeStyle;rounded=0;orthogonalLoop=1;jettySize=auto;html=1;entryX=0;entryY=0.5;entryDx=0;entryDy=0;" edge="1" parent="tpW0L4eKJtAbM24Pp-hq-4" source="ZWHlX_L_aykVCrJByL5k-7" target="ZWHlX_L_aykVCrJByL5k-6">
          <mxGeometry relative="1" as="geometry" />
        </mxCell>
        <mxCell id="ZWHlX_L_aykVCrJByL5k-7" value="&lt;font style=&quot;font-size: 14px;&quot;&gt;Коммутатор&lt;/font&gt;" style="rounded=0;whiteSpace=wrap;html=1;fontSize=22;strokeWidth=1;align=center;fontFamily=Arial;fontStyle=2" parent="tpW0L4eKJtAbM24Pp-hq-4" vertex="1">
          <mxGeometry x="1180" y="354.33" width="120.52" height="78.74" as="geometry" />
        </mxCell>
        <mxCell id="ZWHlX_L_aykVCrJByL5k-10" value="&lt;font style=&quot;font-size: 14px;&quot;&gt;NVR&lt;/font&gt;" style="rounded=0;whiteSpace=wrap;html=1;fontSize=22;strokeWidth=1;align=center;fontFamily=Arial;fontStyle=2" parent="tpW0L4eKJtAbM24Pp-hq-4" vertex="1">
          <mxGeometry x="1417.32" y="505.99999999999994" width="118.11" height="78.74" as="geometry" />
        </mxCell>
        <mxCell id="ZWHlX_L_aykVCrJByL5k-11" value="&lt;font style=&quot;font-size: 14px;&quot;&gt;Принтеры&lt;/font&gt;" style="rounded=0;whiteSpace=wrap;html=1;fontSize=22;strokeWidth=1;align=center;fontFamily=Arial;fontStyle=2" parent="tpW0L4eKJtAbM24Pp-hq-4" vertex="1">
          <mxGeometry x="1182.41" y="777.56" width="118.11" height="81.11" as="geometry" />
        </mxCell>
        <mxCell id="ZWHlX_L_aykVCrJByL5k-16" style="edgeStyle=orthogonalEdgeStyle;rounded=0;orthogonalLoop=1;jettySize=auto;html=1;entryX=0.5;entryY=1;entryDx=0;entryDy=0;startArrow=classic;startFill=1;" parent="tpW0L4eKJtAbM24Pp-hq-4" source="ZWHlX_L_aykVCrJByL5k-12" target="ZWHlX_L_aykVCrJByL5k-7" edge="1">
          <mxGeometry relative="1" as="geometry" />
        </mxCell>
        <mxCell id="PZikR7av2AhRdOscedBx-0" value="" style="edgeStyle=orthogonalEdgeStyle;rounded=0;orthogonalLoop=1;jettySize=auto;html=1;" edge="1" parent="tpW0L4eKJtAbM24Pp-hq-4" source="ZWHlX_L_aykVCrJByL5k-12" target="ZWHlX_L_aykVCrJByL5k-11">
          <mxGeometry relative="1" as="geometry" />
        </mxCell>
        <mxCell id="PZikR7av2AhRdOscedBx-7" style="edgeStyle=orthogonalEdgeStyle;rounded=0;orthogonalLoop=1;jettySize=auto;html=1;entryX=0.5;entryY=1;entryDx=0;entryDy=0;" edge="1" parent="tpW0L4eKJtAbM24Pp-hq-4" source="ZWHlX_L_aykVCrJByL5k-12" target="ZWHlX_L_aykVCrJByL5k-10">
          <mxGeometry relative="1" as="geometry" />
        </mxCell>
        <mxCell id="ZWHlX_L_aykVCrJByL5k-12" value="&lt;font style=&quot;font-size: 14px;&quot;&gt;Персональные компьютеры&lt;/font&gt;" style="rounded=0;whiteSpace=wrap;html=1;fontSize=22;strokeWidth=1;align=center;fontFamily=Arial;fontStyle=2" parent="tpW0L4eKJtAbM24Pp-hq-4" vertex="1">
          <mxGeometry x="1181.31" y="620.0799999999999" width="119.21" height="81.11" as="geometry" />
        </mxCell>
        <mxCell id="tpW0L4eKJtAbM24Pp-hq-6" value="Рамка" parent="0" />
        <mxCell id="Izu4CDzaR0ki_h7jihql-112" style="vsdxID=3;fillColor=#FFFFFF;gradientColor=none;shape=stencil(nY9LDoAgDERP0z3SI/i5BwkoRAUC+Lu9kGo0Lt3NtK/tFLCOWngFnMUU3Kg2I5MGbIBzY7UKJmUF2ALWvQtqCG6xkrwXhSxqdmvZsNNcxViZ4ewgT64jdDL2hf4E7wsXmsWThd549765c4l+xvYE);strokeColor=#000000;strokeWidth=4;spacingTop=-1;spacingBottom=-1;spacingLeft=-1;spacingRight=-1;labelBackgroundColor=#ffffff;rounded=0;html=1;whiteSpace=wrap;fontFamily=Arial;fontStyle=2" parent="tpW0L4eKJtAbM24Pp-hq-6" vertex="1">
          <mxGeometry x="893.14" y="928.4500000000002" width="740" height="220" as="geometry" />
        </mxCell>
        <mxCell id="Izu4CDzaR0ki_h7jihql-113" style="vsdxID=28;edgeStyle=none;startArrow=none;endArrow=none;startSize=5;endSize=5;strokeWidth=4;strokeColor=#000000;spacingTop=-1;spacingBottom=-1;spacingLeft=-1;spacingRight=-1;verticalAlign=middle;html=1;labelBackgroundColor=#ffffff;rounded=0;fontFamily=Arial;fontStyle=2" parent="tpW0L4eKJtAbM24Pp-hq-6" edge="1">
          <mxGeometry relative="1" as="geometry">
            <Array as="points" />
            <mxPoint x="921.1400000000001" y="928.4499999999999" as="sourcePoint" />
            <mxPoint x="921.1400000000001" y="1028.4499999999998" as="targetPoint" />
          </mxGeometry>
        </mxCell>
        <mxCell id="Izu4CDzaR0ki_h7jihql-114" style="vsdxID=27;edgeStyle=none;startArrow=none;endArrow=none;startSize=5;endSize=5;strokeColor=#000000;spacingTop=-1;spacingBottom=-1;spacingLeft=-1;spacingRight=-1;verticalAlign=middle;html=1;labelBackgroundColor=#ffffff;rounded=0;fontFamily=Arial;fontStyle=2" parent="tpW0L4eKJtAbM24Pp-hq-6" edge="1">
          <mxGeometry relative="1" as="geometry">
            <mxPoint as="offset" />
            <Array as="points" />
            <mxPoint x="893.1400000000001" y="1128.4499999999998" as="sourcePoint" />
            <mxPoint x="1153.14" y="1128.4499999999998" as="targetPoint" />
          </mxGeometry>
        </mxCell>
        <mxCell id="Izu4CDzaR0ki_h7jihql-115" style="vsdxID=26;edgeStyle=none;startArrow=none;endArrow=none;startSize=5;endSize=5;strokeColor=#000000;spacingTop=-1;spacingBottom=-1;spacingLeft=-1;spacingRight=-1;verticalAlign=middle;html=1;labelBackgroundColor=#ffffff;rounded=0;fontFamily=Arial;fontStyle=2" parent="tpW0L4eKJtAbM24Pp-hq-6" edge="1">
          <mxGeometry relative="1" as="geometry">
            <mxPoint as="offset" />
            <Array as="points" />
            <mxPoint x="893.1400000000001" y="1108.4499999999998" as="sourcePoint" />
            <mxPoint x="1153.14" y="1108.4499999999998" as="targetPoint" />
          </mxGeometry>
        </mxCell>
        <mxCell id="Izu4CDzaR0ki_h7jihql-116" style="vsdxID=25;edgeStyle=none;startArrow=none;endArrow=none;startSize=5;endSize=5;strokeColor=#000000;spacingTop=-1;spacingBottom=-1;spacingLeft=-1;spacingRight=-1;verticalAlign=middle;html=1;labelBackgroundColor=#ffffff;rounded=0;fontFamily=Arial;fontStyle=2" parent="tpW0L4eKJtAbM24Pp-hq-6" edge="1">
          <mxGeometry relative="1" as="geometry">
            <mxPoint as="offset" />
            <Array as="points" />
            <mxPoint x="893.1400000000001" y="1088.4499999999998" as="sourcePoint" />
            <mxPoint x="1153.14" y="1088.4499999999998" as="targetPoint" />
          </mxGeometry>
        </mxCell>
        <mxCell id="Izu4CDzaR0ki_h7jihql-117" style="vsdxID=24;edgeStyle=none;startArrow=none;endArrow=none;startSize=5;endSize=5;strokeColor=#000000;spacingTop=-1;spacingBottom=-1;spacingLeft=-1;spacingRight=-1;verticalAlign=middle;html=1;labelBackgroundColor=#ffffff;rounded=0;fontFamily=Arial;fontStyle=2" parent="tpW0L4eKJtAbM24Pp-hq-6" edge="1">
          <mxGeometry relative="1" as="geometry">
            <mxPoint as="offset" />
            <Array as="points" />
            <mxPoint x="893.1400000000001" y="1068.4499999999998" as="sourcePoint" />
            <mxPoint x="1153.14" y="1068.4499999999998" as="targetPoint" />
          </mxGeometry>
        </mxCell>
        <mxCell id="Izu4CDzaR0ki_h7jihql-118" style="vsdxID=23;edgeStyle=none;startArrow=none;endArrow=none;startSize=5;endSize=5;strokeColor=#000000;spacingTop=-1;spacingBottom=-1;spacingLeft=-1;spacingRight=-1;verticalAlign=middle;html=1;labelBackgroundColor=#ffffff;rounded=0;fontFamily=Arial;fontStyle=2" parent="tpW0L4eKJtAbM24Pp-hq-6" edge="1">
          <mxGeometry relative="1" as="geometry">
            <mxPoint as="offset" />
            <Array as="points" />
            <mxPoint x="893.1400000000001" y="1048.4499999999998" as="sourcePoint" />
            <mxPoint x="1153.14" y="1048.4499999999998" as="targetPoint" />
          </mxGeometry>
        </mxCell>
        <mxCell id="Izu4CDzaR0ki_h7jihql-119" style="vsdxID=22;edgeStyle=none;startArrow=none;endArrow=none;startSize=5;endSize=5;strokeWidth=4;strokeColor=#000000;spacingTop=-1;spacingBottom=-1;spacingLeft=-1;spacingRight=-1;verticalAlign=middle;html=1;labelBackgroundColor=#ffffff;rounded=0;fontFamily=Arial;fontStyle=2" parent="tpW0L4eKJtAbM24Pp-hq-6" edge="1">
          <mxGeometry relative="1" as="geometry">
            <mxPoint as="offset" />
            <Array as="points" />
            <mxPoint x="893.1400000000001" y="1028.4499999999998" as="sourcePoint" />
            <mxPoint x="1153.14" y="1028.4499999999998" as="targetPoint" />
          </mxGeometry>
        </mxCell>
        <mxCell id="Izu4CDzaR0ki_h7jihql-120" style="vsdxID=21;edgeStyle=none;startArrow=none;endArrow=none;startSize=5;endSize=5;strokeWidth=4;strokeColor=#000000;spacingTop=-1;spacingBottom=-1;spacingLeft=-1;spacingRight=-1;verticalAlign=middle;html=1;labelBackgroundColor=#ffffff;rounded=0;fontFamily=Arial;fontStyle=2" parent="tpW0L4eKJtAbM24Pp-hq-6" edge="1">
          <mxGeometry relative="1" as="geometry">
            <mxPoint as="offset" />
            <Array as="points" />
            <mxPoint x="893.1400000000001" y="1008.4499999999999" as="sourcePoint" />
            <mxPoint x="1153.14" y="1008.4499999999999" as="targetPoint" />
          </mxGeometry>
        </mxCell>
        <mxCell id="Izu4CDzaR0ki_h7jihql-121" style="vsdxID=20;edgeStyle=none;startArrow=none;endArrow=none;startSize=5;endSize=5;strokeColor=#000000;spacingTop=-1;spacingBottom=-1;spacingLeft=-1;spacingRight=-1;verticalAlign=middle;html=1;labelBackgroundColor=#ffffff;rounded=0;fontFamily=Arial;fontStyle=2" parent="tpW0L4eKJtAbM24Pp-hq-6" edge="1">
          <mxGeometry relative="1" as="geometry">
            <mxPoint as="offset" />
            <Array as="points" />
            <mxPoint x="893.1400000000001" y="988.4499999999999" as="sourcePoint" />
            <mxPoint x="1153.14" y="988.4499999999999" as="targetPoint" />
          </mxGeometry>
        </mxCell>
        <mxCell id="Izu4CDzaR0ki_h7jihql-122" style="vsdxID=19;edgeStyle=none;startArrow=none;endArrow=none;startSize=5;endSize=5;strokeColor=#000000;spacingTop=-1;spacingBottom=-1;spacingLeft=-1;spacingRight=-1;verticalAlign=middle;html=1;labelBackgroundColor=#ffffff;rounded=0;fontFamily=Arial;fontStyle=2" parent="tpW0L4eKJtAbM24Pp-hq-6" edge="1">
          <mxGeometry relative="1" as="geometry">
            <mxPoint as="offset" />
            <Array as="points" />
            <mxPoint x="893.1400000000001" y="968.4499999999999" as="sourcePoint" />
            <mxPoint x="1153.14" y="968.4499999999999" as="targetPoint" />
          </mxGeometry>
        </mxCell>
        <mxCell id="Izu4CDzaR0ki_h7jihql-123" style="vsdxID=18;edgeStyle=none;startArrow=none;endArrow=none;startSize=5;endSize=5;strokeColor=#000000;spacingTop=-1;spacingBottom=-1;spacingLeft=-1;spacingRight=-1;verticalAlign=middle;html=1;labelBackgroundColor=#ffffff;rounded=0;fontFamily=Arial;fontStyle=2" parent="tpW0L4eKJtAbM24Pp-hq-6" edge="1">
          <mxGeometry relative="1" as="geometry">
            <mxPoint as="offset" />
            <Array as="points" />
            <mxPoint x="893.1400000000001" y="948.4499999999999" as="sourcePoint" />
            <mxPoint x="1153.14" y="948.4499999999999" as="targetPoint" />
          </mxGeometry>
        </mxCell>
        <mxCell id="Izu4CDzaR0ki_h7jihql-124" style="vsdxID=17;edgeStyle=none;startArrow=none;endArrow=none;startSize=5;endSize=5;strokeWidth=4;strokeColor=#000000;spacingTop=-1;spacingBottom=-1;spacingLeft=-1;spacingRight=-1;verticalAlign=middle;html=1;labelBackgroundColor=#ffffff;rounded=0;fontFamily=Arial;fontStyle=2" parent="tpW0L4eKJtAbM24Pp-hq-6" edge="1">
          <mxGeometry relative="1" as="geometry">
            <Array as="points" />
            <mxPoint x="961.1400000000001" y="928.4499999999999" as="sourcePoint" />
            <mxPoint x="961.1400000000001" y="1148.4499999999998" as="targetPoint" />
          </mxGeometry>
        </mxCell>
        <mxCell id="Izu4CDzaR0ki_h7jihql-125" style="vsdxID=16;edgeStyle=none;startArrow=none;endArrow=none;startSize=5;endSize=5;strokeWidth=4;strokeColor=#000000;spacingTop=-1;spacingBottom=-1;spacingLeft=-1;spacingRight=-1;verticalAlign=middle;html=1;labelBackgroundColor=#ffffff;rounded=0;fontFamily=Arial;fontStyle=2" parent="tpW0L4eKJtAbM24Pp-hq-6" edge="1">
          <mxGeometry relative="1" as="geometry">
            <Array as="points" />
            <mxPoint x="1053.14" y="928.4499999999999" as="sourcePoint" />
            <mxPoint x="1053.14" y="1148.4499999999998" as="targetPoint" />
          </mxGeometry>
        </mxCell>
        <mxCell id="Izu4CDzaR0ki_h7jihql-126" style="vsdxID=15;edgeStyle=none;startArrow=none;endArrow=none;startSize=5;endSize=5;strokeWidth=4;strokeColor=#000000;spacingTop=-1;spacingBottom=-1;spacingLeft=-1;spacingRight=-1;verticalAlign=middle;html=1;labelBackgroundColor=#ffffff;rounded=0;fontFamily=Arial;fontStyle=2" parent="tpW0L4eKJtAbM24Pp-hq-6" edge="1">
          <mxGeometry relative="1" as="geometry">
            <Array as="points" />
            <mxPoint x="1113.14" y="928.4499999999999" as="sourcePoint" />
            <mxPoint x="1113.14" y="1148.4499999999998" as="targetPoint" />
          </mxGeometry>
        </mxCell>
        <mxCell id="Izu4CDzaR0ki_h7jihql-127" style="vsdxID=14;edgeStyle=none;startArrow=none;endArrow=none;startSize=5;endSize=5;strokeWidth=4;strokeColor=#000000;spacingTop=-1;spacingBottom=-1;spacingLeft=-1;spacingRight=-1;verticalAlign=middle;html=1;labelBackgroundColor=#ffffff;rounded=0;fontFamily=Arial;fontStyle=2" parent="tpW0L4eKJtAbM24Pp-hq-6" edge="1">
          <mxGeometry relative="1" as="geometry">
            <Array as="points" />
            <mxPoint x="1563.14" y="988.4499999999999" as="sourcePoint" />
            <mxPoint x="1563.14" y="1068.4499999999998" as="targetPoint" />
          </mxGeometry>
        </mxCell>
        <mxCell id="Izu4CDzaR0ki_h7jihql-128" style="vsdxID=11;edgeStyle=none;startArrow=none;endArrow=none;startSize=5;endSize=5;strokeWidth=4;strokeColor=#000000;spacingTop=-1;spacingBottom=-1;spacingLeft=-1;spacingRight=-1;verticalAlign=middle;html=1;labelBackgroundColor=#ffffff;rounded=0;fontFamily=Arial;fontStyle=2" parent="tpW0L4eKJtAbM24Pp-hq-6" edge="1">
          <mxGeometry relative="1" as="geometry">
            <Array as="points" />
            <mxPoint x="1513.14" y="1068.4499999999998" as="sourcePoint" />
            <mxPoint x="1513.14" y="1088.4499999999998" as="targetPoint" />
          </mxGeometry>
        </mxCell>
        <mxCell id="Izu4CDzaR0ki_h7jihql-129" style="vsdxID=10;edgeStyle=none;startArrow=none;endArrow=none;startSize=5;endSize=5;strokeWidth=4;strokeColor=#000000;spacingTop=-1;spacingBottom=-1;spacingLeft=-1;spacingRight=-1;verticalAlign=middle;html=1;labelBackgroundColor=#ffffff;rounded=0;fontFamily=Arial;fontStyle=2" parent="tpW0L4eKJtAbM24Pp-hq-6" edge="1">
          <mxGeometry relative="1" as="geometry">
            <Array as="points" />
            <mxPoint x="1493.14" y="988.4499999999999" as="sourcePoint" />
            <mxPoint x="1493.14" y="1068.4499999999998" as="targetPoint" />
          </mxGeometry>
        </mxCell>
        <mxCell id="Izu4CDzaR0ki_h7jihql-131" style="vsdxID=388;edgeStyle=none;startArrow=none;endArrow=none;startSize=5;endSize=5;strokeColor=#000000;spacingTop=-1;spacingBottom=-1;spacingLeft=-1;spacingRight=-1;verticalAlign=middle;html=1;labelBackgroundColor=#ffffff;rounded=0;fontFamily=Arial;fontStyle=2" parent="tpW0L4eKJtAbM24Pp-hq-6" edge="1">
          <mxGeometry relative="1" as="geometry">
            <Array as="points" />
            <mxPoint x="1473.14" y="1006.4499999999999" as="sourcePoint" />
            <mxPoint x="1473.14" y="1068.4499999999998" as="targetPoint" />
          </mxGeometry>
        </mxCell>
        <mxCell id="Izu4CDzaR0ki_h7jihql-135" style="vsdxID=387;edgeStyle=none;startArrow=none;endArrow=none;startSize=5;endSize=5;strokeColor=#000000;spacingTop=-1;spacingBottom=-1;spacingLeft=-1;spacingRight=-1;verticalAlign=middle;html=1;labelBackgroundColor=#ffffff;rounded=0;fontFamily=Arial;fontStyle=2" parent="tpW0L4eKJtAbM24Pp-hq-6" edge="1">
          <mxGeometry relative="1" as="geometry">
            <Array as="points" />
            <mxPoint x="1453.14" y="1006.4499999999999" as="sourcePoint" />
            <mxPoint x="1453.14" y="1068.4499999999998" as="targetPoint" />
          </mxGeometry>
        </mxCell>
        <mxCell id="Izu4CDzaR0ki_h7jihql-136" style="vsdxID=9;edgeStyle=none;startArrow=none;endArrow=none;startSize=5;endSize=5;strokeWidth=4;strokeColor=#000000;spacingTop=-1;spacingBottom=-1;spacingLeft=-1;spacingRight=-1;verticalAlign=middle;html=1;labelBackgroundColor=#ffffff;rounded=0;fontFamily=Arial;fontStyle=2" parent="tpW0L4eKJtAbM24Pp-hq-6" edge="1">
          <mxGeometry relative="1" as="geometry">
            <mxPoint as="offset" />
            <Array as="points" />
            <mxPoint x="1433.14" y="1068.4499999999998" as="sourcePoint" />
            <mxPoint x="1633.14" y="1068.4499999999998" as="targetPoint" />
          </mxGeometry>
        </mxCell>
        <mxCell id="Izu4CDzaR0ki_h7jihql-137" style="vsdxID=8;edgeStyle=none;startArrow=none;endArrow=none;startSize=5;endSize=5;strokeWidth=4;strokeColor=#000000;spacingTop=-1;spacingBottom=-1;spacingLeft=-1;spacingRight=-1;verticalAlign=middle;html=1;labelBackgroundColor=#ffffff;rounded=0;fontFamily=Arial;fontStyle=2" parent="tpW0L4eKJtAbM24Pp-hq-6" edge="1">
          <mxGeometry relative="1" as="geometry">
            <mxPoint as="offset" />
            <Array as="points" />
            <mxPoint x="1433.14" y="1008.4499999999999" as="sourcePoint" />
            <mxPoint x="1633.14" y="1008.4499999999999" as="targetPoint" />
          </mxGeometry>
        </mxCell>
        <mxCell id="Izu4CDzaR0ki_h7jihql-138" style="vsdxID=7;edgeStyle=none;startArrow=none;endArrow=none;startSize=5;endSize=5;strokeWidth=4;strokeColor=#000000;spacingTop=-1;spacingBottom=-1;spacingLeft=-1;spacingRight=-1;verticalAlign=middle;html=1;labelBackgroundColor=#ffffff;rounded=0;fontFamily=Arial;fontStyle=2" parent="tpW0L4eKJtAbM24Pp-hq-6" edge="1">
          <mxGeometry relative="1" as="geometry">
            <Array as="points" />
            <mxPoint x="1433.14" y="988.4499999999999" as="sourcePoint" />
            <mxPoint x="1433.14" y="1148.4499999999998" as="targetPoint" />
          </mxGeometry>
        </mxCell>
        <mxCell id="Izu4CDzaR0ki_h7jihql-139" style="vsdxID=6;edgeStyle=none;startArrow=none;endArrow=none;startSize=5;endSize=5;strokeWidth=4;strokeColor=#000000;spacingTop=-1;spacingBottom=-1;spacingLeft=-1;spacingRight=-1;verticalAlign=middle;html=1;labelBackgroundColor=#ffffff;rounded=0;fontFamily=Arial;fontStyle=2" parent="tpW0L4eKJtAbM24Pp-hq-6" edge="1">
          <mxGeometry relative="1" as="geometry">
            <Array as="points" />
            <mxPoint x="1633.14" y="1088.4499999999998" as="sourcePoint" />
            <mxPoint x="1153.14" y="1088.4499999999998" as="targetPoint" />
          </mxGeometry>
        </mxCell>
        <mxCell id="Izu4CDzaR0ki_h7jihql-140" style="vsdxID=4;edgeStyle=none;startArrow=none;endArrow=none;startSize=5;endSize=5;strokeWidth=4;strokeColor=#000000;spacingTop=-1;spacingBottom=-1;spacingLeft=-1;spacingRight=-1;verticalAlign=middle;html=1;labelBackgroundColor=#ffffff;rounded=0;fontFamily=Arial;fontStyle=2" parent="tpW0L4eKJtAbM24Pp-hq-6" edge="1">
          <mxGeometry relative="1" as="geometry">
            <Array as="points" />
            <mxPoint x="1153.14" y="928.4499999999999" as="sourcePoint" />
            <mxPoint x="1153.14" y="1148.4499999999998" as="targetPoint" />
          </mxGeometry>
        </mxCell>
        <mxCell id="Izu4CDzaR0ki_h7jihql-141" style="vsdxID=5;edgeStyle=none;startArrow=none;endArrow=none;startSize=5;endSize=5;strokeWidth=4;strokeColor=#000000;spacingTop=-1;spacingBottom=-1;spacingLeft=-1;spacingRight=-1;verticalAlign=middle;html=1;labelBackgroundColor=#ffffff;rounded=0;fontFamily=Arial;fontStyle=2" parent="tpW0L4eKJtAbM24Pp-hq-6" edge="1">
          <mxGeometry relative="1" as="geometry">
            <Array as="points" />
            <mxPoint x="1633.14" y="988.4499999999999" as="sourcePoint" />
            <mxPoint x="1153.14" y="988.4499999999999" as="targetPoint" />
          </mxGeometry>
        </mxCell>
        <mxCell id="Izu4CDzaR0ki_h7jihql-142" value="&lt;font style=&quot;font-size: 8px; direction: ltr; letter-spacing: 0px; line-height: 120%; opacity: 1;&quot;&gt;&lt;span&gt;Изм&lt;br&gt;&lt;/span&gt;&lt;/font&gt;" style="verticalAlign=middle;align=center;vsdxID=29;fillColor=none;gradientColor=none;shape=stencil(nZBLDoAgDERP0z3SIyjew0SURgSD+Lu9kMZoXLhwN9O+tukAlrNpJg1SzDH4QW/URgNYgZTkjA4UkwJUgGXng+6DX1zLfmoymdXo17xh5zmRJ6Q42BWCfc2oJfdAr+Yv+AP9Cb7OJ3H/2JG1HNGz/84klThPVCc=);strokeColor=none;strokeWidth=4;spacingTop=-1;spacingBottom=-1;spacingLeft=-1;spacingRight=-1;labelBackgroundColor=none;rounded=0;html=1;whiteSpace=wrap;fontFamily=Arial;fontStyle=2" parent="tpW0L4eKJtAbM24Pp-hq-6" vertex="1">
          <mxGeometry x="895.14" y="1010.4500000000002" width="24" height="16" as="geometry" />
        </mxCell>
        <mxCell id="Izu4CDzaR0ki_h7jihql-143" value="&lt;font style=&quot;font-size: 8px; direction: ltr; letter-spacing: 0px; line-height: 120%; opacity: 1;&quot;&gt;&lt;span&gt;Лист&lt;br&gt;&lt;/span&gt;&lt;/font&gt;" style="verticalAlign=middle;align=center;vsdxID=30;fillColor=none;gradientColor=none;shape=stencil(nZBLDoAgDERP0z3SIyjew0SURgSD+Lu9kMZoXLhwN9O+tukAlrNpJg1SzDH4QW/URgNYgZTkjA4UkwJUgGXng+6DX1zLfmoymdXo17xh5zmRJ6Q42BWCfc2oJfdAr+Yv+AP9Cb7OJ3H/2JG1HNGz/84klThPVCc=);strokeColor=none;strokeWidth=4;spacingTop=-1;spacingBottom=-1;spacingLeft=-1;spacingRight=-1;labelBackgroundColor=none;rounded=0;html=1;whiteSpace=wrap;fontFamily=Arial;fontStyle=2" parent="tpW0L4eKJtAbM24Pp-hq-6" vertex="1">
          <mxGeometry x="923.14" y="1010.4500000000002" width="36" height="16" as="geometry" />
        </mxCell>
        <mxCell id="Izu4CDzaR0ki_h7jihql-144" value="&lt;font style=&quot;font-size: 8px; direction: ltr; letter-spacing: 0px; line-height: 120%; opacity: 1;&quot;&gt;&lt;span&gt;№ документа&lt;br&gt;&lt;/span&gt;&lt;/font&gt;" style="verticalAlign=middle;align=center;vsdxID=31;fillColor=none;gradientColor=none;shape=stencil(nZBLDoAgDERP0z3SIyjew0SURgSD+Lu9kMZoXLhwN9O+tukAlrNpJg1SzDH4QW/URgNYgZTkjA4UkwJUgGXng+6DX1zLfmoymdXo17xh5zmRJ6Q42BWCfc2oJfdAr+Yv+AP9Cb7OJ3H/2JG1HNGz/84klThPVCc=);strokeColor=none;strokeWidth=4;spacingTop=-1;spacingBottom=-1;spacingLeft=-1;spacingRight=-1;labelBackgroundColor=none;rounded=0;html=1;whiteSpace=wrap;fontFamily=Arial;fontStyle=2" parent="tpW0L4eKJtAbM24Pp-hq-6" vertex="1">
          <mxGeometry x="963.14" y="1010.4500000000002" width="88" height="16" as="geometry" />
        </mxCell>
        <mxCell id="Izu4CDzaR0ki_h7jihql-145" value="&lt;font style=&quot;font-size: 8px; direction: ltr; letter-spacing: 0px; line-height: 120%; opacity: 1;&quot;&gt;&lt;span&gt;Подпись&lt;br&gt;&lt;/span&gt;&lt;/font&gt;" style="verticalAlign=middle;align=center;vsdxID=32;fillColor=none;gradientColor=none;shape=stencil(nZBLDoAgDERP0z3SIyjew0SURgSD+Lu9kMZoXLhwN9O+tukAlrNpJg1SzDH4QW/URgNYgZTkjA4UkwJUgGXng+6DX1zLfmoymdXo17xh5zmRJ6Q42BWCfc2oJfdAr+Yv+AP9Cb7OJ3H/2JG1HNGz/84klThPVCc=);strokeColor=none;strokeWidth=4;spacingTop=-1;spacingBottom=-1;spacingLeft=-1;spacingRight=-1;labelBackgroundColor=none;rounded=0;html=1;whiteSpace=wrap;fontFamily=Arial;fontStyle=2" parent="tpW0L4eKJtAbM24Pp-hq-6" vertex="1">
          <mxGeometry x="1055.14" y="1010.4500000000002" width="56" height="16" as="geometry" />
        </mxCell>
        <mxCell id="Izu4CDzaR0ki_h7jihql-146" value="&lt;font style=&quot;font-size: 8px; direction: ltr; letter-spacing: 0px; line-height: 120%; opacity: 1;&quot;&gt;&lt;span&gt;Дата&lt;br&gt;&lt;/span&gt;&lt;/font&gt;" style="verticalAlign=middle;align=center;vsdxID=33;fillColor=none;gradientColor=none;shape=stencil(nZBLDoAgDERP0z3SIyjew0SURgSD+Lu9kMZoXLhwN9O+tukAlrNpJg1SzDH4QW/URgNYgZTkjA4UkwJUgGXng+6DX1zLfmoymdXo17xh5zmRJ6Q42BWCfc2oJfdAr+Yv+AP9Cb7OJ3H/2JG1HNGz/84klThPVCc=);strokeColor=none;strokeWidth=4;spacingTop=-1;spacingBottom=-1;spacingLeft=-1;spacingRight=-1;labelBackgroundColor=none;rounded=0;html=1;whiteSpace=wrap;fontFamily=Arial;fontStyle=2" parent="tpW0L4eKJtAbM24Pp-hq-6" vertex="1">
          <mxGeometry x="1115.14" y="1010.4500000000002" width="36" height="16" as="geometry" />
        </mxCell>
        <mxCell id="Izu4CDzaR0ki_h7jihql-147" value="&lt;font style=&quot;font-size: 8px; direction: ltr; letter-spacing: 0px; line-height: 120%; opacity: 1;&quot;&gt;&lt;span&gt;Лит.&lt;br&gt;&lt;/span&gt;&lt;/font&gt;" style="verticalAlign=middle;align=center;vsdxID=34;fillColor=none;gradientColor=none;shape=stencil(nZBLDoAgDERP0z3SIyjew0SURgSD+Lu9kMZoXLhwN9O+tukAlrNpJg1SzDH4QW/URgNYgZTkjA4UkwJUgGXng+6DX1zLfmoymdXo17xh5zmRJ6Q42BWCfc2oJfdAr+Yv+AP9Cb7OJ3H/2JG1HNGz/84klThPVCc=);strokeColor=none;strokeWidth=4;spacingTop=-1;spacingBottom=-1;spacingLeft=-1;spacingRight=-1;labelBackgroundColor=none;rounded=0;html=1;whiteSpace=wrap;fontFamily=Arial;fontStyle=2" parent="tpW0L4eKJtAbM24Pp-hq-6" vertex="1">
          <mxGeometry x="1435.14" y="990.4500000000002" width="56" height="16" as="geometry" />
        </mxCell>
        <mxCell id="Izu4CDzaR0ki_h7jihql-148" value="&lt;font style=&quot;font-size: 8px; direction: ltr; letter-spacing: 0px; line-height: 120%; opacity: 1;&quot;&gt;&lt;span&gt;Масса&lt;br&gt;&lt;/span&gt;&lt;/font&gt;" style="verticalAlign=middle;align=center;vsdxID=35;fillColor=none;gradientColor=none;shape=stencil(nZBLDoAgDERP0z3SIyjew0SURgSD+Lu9kMZoXLhwN9O+tukAlrNpJg1SzDH4QW/URgNYgZTkjA4UkwJUgGXng+6DX1zLfmoymdXo17xh5zmRJ6Q42BWCfc2oJfdAr+Yv+AP9Cb7OJ3H/2JG1HNGz/84klThPVCc=);strokeColor=none;strokeWidth=4;spacingTop=-1;spacingBottom=-1;spacingLeft=-1;spacingRight=-1;labelBackgroundColor=none;rounded=0;html=1;whiteSpace=wrap;fontFamily=Arial;fontStyle=2" parent="tpW0L4eKJtAbM24Pp-hq-6" vertex="1">
          <mxGeometry x="1495.14" y="990.4500000000002" width="66" height="16" as="geometry" />
        </mxCell>
        <mxCell id="Izu4CDzaR0ki_h7jihql-149" value="&lt;font style=&quot;font-size: 8px; direction: ltr; letter-spacing: 0px; line-height: 120%; opacity: 1;&quot;&gt;&lt;span&gt;Масштаб&lt;br&gt;&lt;/span&gt;&lt;/font&gt;" style="verticalAlign=middle;align=center;vsdxID=36;fillColor=none;gradientColor=none;shape=stencil(nZBLDoAgDERP0z3SIyjew0SURgSD+Lu9kMZoXLhwN9O+tukAlrNpJg1SzDH4QW/URgNYgZTkjA4UkwJUgGXng+6DX1zLfmoymdXo17xh5zmRJ6Q42BWCfc2oJfdAr+Yv+AP9Cb7OJ3H/2JG1HNGz/84klThPVCc=);strokeColor=none;strokeWidth=4;spacingTop=-1;spacingBottom=-1;spacingLeft=-1;spacingRight=-1;labelBackgroundColor=none;rounded=0;html=1;whiteSpace=wrap;fontFamily=Arial;fontStyle=2" parent="tpW0L4eKJtAbM24Pp-hq-6" vertex="1">
          <mxGeometry x="1565.14" y="990.4500000000002" width="66" height="16" as="geometry" />
        </mxCell>
        <mxCell id="Izu4CDzaR0ki_h7jihql-150" value="&lt;font style=&quot;font-size: 8px; direction: ltr; letter-spacing: 0px; line-height: 120%; opacity: 1;&quot;&gt;&lt;span&gt;Лист &lt;br&gt;&lt;/span&gt;&lt;/font&gt;" style="verticalAlign=middle;align=center;vsdxID=37;fillColor=none;gradientColor=none;shape=stencil(nZBLDoAgDERP0z3SIyjew0SURgSD+Lu9kMZoXLhwN9O+tukAlrNpJg1SzDH4QW/URgNYgZTkjA4UkwJUgGXng+6DX1zLfmoymdXo17xh5zmRJ6Q42BWCfc2oJfdAr+Yv+AP9Cb7OJ3H/2JG1HNGz/84klThPVCc=);strokeColor=none;strokeWidth=4;spacingTop=-1;spacingBottom=-1;spacingLeft=-1;spacingRight=-1;labelBackgroundColor=none;rounded=0;html=1;whiteSpace=wrap;fontFamily=Arial;fontStyle=2" parent="tpW0L4eKJtAbM24Pp-hq-6" vertex="1">
          <mxGeometry x="1435.14" y="1070.45" width="76" height="16" as="geometry" />
        </mxCell>
        <mxCell id="Izu4CDzaR0ki_h7jihql-151" value="&lt;font style=&quot;font-size: 8px; direction: ltr; letter-spacing: 0px; line-height: 120%; opacity: 1;&quot;&gt;&lt;span&gt;Листов &lt;/span&gt;&lt;/font&gt;&lt;font style=&quot;font-size: 8px; direction: ltr; letter-spacing: 0px; line-height: 120%; opacity: 1;&quot;&gt;&lt;span&gt;1&lt;br&gt;&lt;/span&gt;&lt;/font&gt;" style="verticalAlign=middle;align=center;vsdxID=38;fillColor=none;gradientColor=none;shape=stencil(nZBLDoAgDERP0z3SIyjew0SURgSD+Lu9kMZoXLhwN9O+tukAlrNpJg1SzDH4QW/URgNYgZTkjA4UkwJUgGXng+6DX1zLfmoymdXo17xh5zmRJ6Q42BWCfc2oJfdAr+Yv+AP9Cb7OJ3H/2JG1HNGz/84klThPVCc=);strokeColor=none;strokeWidth=4;spacingTop=-1;spacingBottom=-1;spacingLeft=-1;spacingRight=-1;labelBackgroundColor=none;rounded=0;html=1;whiteSpace=wrap;fontFamily=Arial;fontStyle=2" parent="tpW0L4eKJtAbM24Pp-hq-6" vertex="1">
          <mxGeometry x="1515.14" y="1070.45" width="116" height="16" as="geometry" />
        </mxCell>
        <mxCell id="Izu4CDzaR0ki_h7jihql-152" value="&lt;p style=&quot;margin-left: 0 ; margin-right: 0 ; margin-top: 0px ; margin-bottom: 0px ; text-indent: 0 ; direction: rtl&quot;&gt;&lt;font style=&quot;font-size: 12px; direction: ltr; letter-spacing: 0px; line-height: 120%; opacity: 1;&quot;&gt;&lt;span&gt;.Разраб.&lt;br&gt;&lt;/span&gt;&lt;/font&gt;&lt;/p&gt;" style="verticalAlign=middle;align=right;vsdxID=39;fillColor=none;gradientColor=none;shape=stencil(nZBLDoAgDERP0z3SIyjew0SURgSD+Lu9kMZoXLhwN9O+tukAlrNpJg1SzDH4QW/URgNYgZTkjA4UkwJUgGXng+6DX1zLfmoymdXo17xh5zmRJ6Q42BWCfc2oJfdAr+Yv+AP9Cb7OJ3H/2JG1HNGz/84klThPVCc=);strokeColor=none;strokeWidth=4;spacingTop=-1;spacingBottom=-1;spacingLeft=-1;spacingRight=-1;labelBackgroundColor=none;rounded=0;html=1;whiteSpace=wrap;fontFamily=Arial;fontStyle=2" parent="tpW0L4eKJtAbM24Pp-hq-6" vertex="1">
          <mxGeometry x="873.14" y="1032.45" width="68" height="16" as="geometry" />
        </mxCell>
        <mxCell id="Izu4CDzaR0ki_h7jihql-153" value="&lt;p style=&quot;margin-left: 0 ; margin-right: 0 ; margin-top: 0px ; margin-bottom: 0px ; text-indent: 0 ; direction: rtl&quot;&gt;&lt;font style=&quot;font-size: 12px; direction: ltr; letter-spacing: 0px; line-height: 120%; opacity: 1;&quot;&gt;&lt;span&gt;.Пров&lt;br&gt;&lt;/span&gt;&lt;/font&gt;&lt;/p&gt;" style="verticalAlign=middle;align=right;vsdxID=40;fillColor=none;gradientColor=none;shape=stencil(nZBLDoAgDERP0z3SIyjew0SURgSD+Lu9kMZoXLhwN9O+tukAlrNpJg1SzDH4QW/URgNYgZTkjA4UkwJUgGXng+6DX1zLfmoymdXo17xh5zmRJ6Q42BWCfc2oJfdAr+Yv+AP9Cb7OJ3H/2JG1HNGz/84klThPVCc=);strokeColor=none;strokeWidth=4;spacingTop=-1;spacingBottom=-1;spacingLeft=-1;spacingRight=-1;labelBackgroundColor=none;rounded=0;html=1;whiteSpace=wrap;fontFamily=Arial;fontStyle=2" parent="tpW0L4eKJtAbM24Pp-hq-6" vertex="1">
          <mxGeometry x="866.14" y="1048.45" width="64" height="20" as="geometry" />
        </mxCell>
        <mxCell id="Izu4CDzaR0ki_h7jihql-154" value="&lt;p style=&quot;margin-left: 0 ; margin-right: 0 ; margin-top: 0px ; margin-bottom: 0px ; text-indent: 0 ; direction: rtl&quot;&gt;&lt;font style=&quot;direction: ltr; letter-spacing: 0px; line-height: 120%; opacity: 1;&quot;&gt;&lt;span&gt;&lt;font style=&quot;font-size: 36px&quot;&gt;ГУИР.400201.080 С1&lt;/font&gt;&lt;/span&gt;&lt;span style=&quot;font-size: 28px&quot;&gt;&lt;br&gt;&lt;/span&gt;&lt;/font&gt;&lt;/p&gt;" style="verticalAlign=middle;align=center;vsdxID=222;fillColor=none;gradientColor=none;shape=stencil(nZBLDoAgDERP0z3SIyjew0SURgSD+Lu9kMZoXLhwN9O+tukAlrNpJg1SzDH4QW/URgNYgZTkjA4UkwJUgGXng+6DX1zLfmoymdXo17xh5zmRJ6Q42BWCfc2oJfdAr+Yv+AP9Cb7OJ3H/2JG1HNGz/84klThPVCc=);strokeColor=none;spacingTop=-1;spacingBottom=-1;spacingLeft=-1;spacingRight=-1;labelBackgroundColor=none;rounded=0;html=1;whiteSpace=wrap;fontFamily=Arial;fontStyle=2" parent="tpW0L4eKJtAbM24Pp-hq-6" vertex="1">
          <mxGeometry x="1153.14" y="930.2500000000001" width="480" height="60" as="geometry" />
        </mxCell>
        <mxCell id="Izu4CDzaR0ki_h7jihql-155" value="&lt;font style=&quot;font-size: 20px; direction: ltr; letter-spacing: 0px; line-height: 120%; opacity: 1;&quot;&gt;&lt;span&gt;У&lt;br&gt;&lt;/span&gt;&lt;/font&gt;" style="verticalAlign=middle;align=center;vsdxID=233;fillColor=none;gradientColor=none;shape=stencil(nZBLDoAgDERP0z3SIyjew0SURgSD+Lu9kMZoXLhwN9O+tukAlrNpJg1SzDH4QW/URgNYgZTkjA4UkwJUgGXng+6DX1zLfmoymdXo17xh5zmRJ6Q42BWCfc2oJfdAr+Yv+AP9Cb7OJ3H/2JG1HNGz/84klThPVCc=);strokeColor=none;spacingTop=-1;spacingBottom=-1;spacingLeft=-1;spacingRight=-1;labelBackgroundColor=none;rounded=0;html=1;whiteSpace=wrap;fontFamily=Arial;fontStyle=2" parent="tpW0L4eKJtAbM24Pp-hq-6" vertex="1">
          <mxGeometry x="1391.14" y="1028.45" width="141" height="16" as="geometry" />
        </mxCell>
        <mxCell id="Izu4CDzaR0ki_h7jihql-156" value="&lt;font style=&quot;font-size: 12px; direction: ltr; letter-spacing: 0px; line-height: 120%; opacity: 1;&quot;&gt;&lt;span&gt;Сенкевич&lt;br&gt;&lt;/span&gt;&lt;/font&gt;" style="verticalAlign=middle;align=left;vsdxID=236;fillColor=none;gradientColor=none;shape=stencil(nZBLDoAgDERP0z3SIyjew0SURgSD+Lu9kMZoXLhwN9O+tukAlrNpJg1SzDH4QW/URgNYgZTkjA4UkwJUgGXng+6DX1zLfmoymdXo17xh5zmRJ6Q42BWCfc2oJfdAr+Yv+AP9Cb7OJ3H/2JG1HNGz/84klThPVCc=);strokeColor=none;spacingTop=-1;spacingBottom=-1;spacingLeft=-1;spacingRight=-1;labelBackgroundColor=none;rounded=0;html=1;whiteSpace=wrap;fontFamily=Arial;fontStyle=2" parent="tpW0L4eKJtAbM24Pp-hq-6" vertex="1">
          <mxGeometry x="963.14" y="1031.45" width="90" height="16" as="geometry" />
        </mxCell>
        <mxCell id="Izu4CDzaR0ki_h7jihql-157" value="Русакович" style="verticalAlign=middle;align=left;vsdxID=237;fillColor=none;gradientColor=none;shape=stencil(nZBLDoAgDERP0z3SIyjew0SURgSD+Lu9kMZoXLhwN9O+tukAlrNpJg1SzDH4QW/URgNYgZTkjA4UkwJUgGXng+6DX1zLfmoymdXo17xh5zmRJ6Q42BWCfc2oJfdAr+Yv+AP9Cb7OJ3H/2JG1HNGz/84klThPVCc=);strokeColor=none;spacingTop=-1;spacingBottom=-1;spacingLeft=-1;spacingRight=-1;labelBackgroundColor=none;rounded=0;html=1;whiteSpace=wrap;fontFamily=Arial;fontStyle=2" parent="tpW0L4eKJtAbM24Pp-hq-6" vertex="1">
          <mxGeometry x="963.14" y="1050.45" width="90" height="16" as="geometry" />
        </mxCell>
        <mxCell id="Izu4CDzaR0ki_h7jihql-158" value="&lt;font style=&quot;font-size: 22px; direction: ltr; letter-spacing: 0px; line-height: 120%; opacity: 1;&quot;&gt;&lt;span&gt;ЭВМ, гр.050503&lt;/span&gt;&lt;/font&gt;&lt;font style=&quot;font-size: 22px; direction: ltr; letter-spacing: 0px; line-height: 120%; opacity: 1;&quot;&gt;&lt;span&gt;&lt;br&gt;&lt;/span&gt;&lt;/font&gt;" style="verticalAlign=middle;align=center;vsdxID=262;fillColor=none;gradientColor=none;shape=stencil(nZBLDoAgDERP0z3SIyjew0SURgSD+Lu9kMZoXLhwN9O+tukAlrNpJg1SzDH4QW/URgNYgZTkjA4UkwJUgGXng+6DX1zLfmoymdXo17xh5zmRJ6Q42BWCfc2oJfdAr+Yv+AP9Cb7OJ3H/2JG1HNGz/84klThPVCc=);strokeColor=none;spacingTop=-1;spacingBottom=-1;spacingLeft=-1;spacingRight=-1;labelBackgroundColor=none;rounded=0;html=1;whiteSpace=wrap;fontFamily=Arial;fontStyle=2" parent="tpW0L4eKJtAbM24Pp-hq-6" vertex="1">
          <mxGeometry x="1433.14" y="1090.25" width="194" height="60" as="geometry" />
        </mxCell>
        <mxCell id="Izu4CDzaR0ki_h7jihql-159" value="&lt;p style=&quot;margin: 0px; text-indent: 0px; direction: rtl;&quot;&gt;&lt;font style=&quot;direction: ltr; letter-spacing: 0px; line-height: 120%; opacity: 1;&quot;&gt;&lt;font style=&quot;font-size: 28px;&quot;&gt;ГУИР.400201.080 С1&lt;/font&gt;&lt;span style=&quot;font-size: 30px;&quot;&gt;&lt;br style=&quot;font-size: 30px&quot;&gt;&lt;/span&gt;&lt;/font&gt;&lt;/p&gt;" style="verticalAlign=middle;align=center;vsdxID=275;rotation=180;fillColor=none;gradientColor=none;shape=stencil(nZBLDoAgDERP0z3SIyjew0SURgSD+Lu9kMZoXLhwN9O+tukAlrNpJg1SzDH4QW/URgNYgZTkjA4UkwJUgGXng+6DX1zLfmoymdXo17xh5zmRJ6Q42BWCfc2oJfdAr+Yv+AP9Cb7OJ3H/2JG1HNGz/84klThPVCc=);strokeColor=none;spacingTop=-1;spacingBottom=-1;spacingLeft=-1;spacingRight=-1;labelBackgroundColor=none;rounded=0;html=1;whiteSpace=wrap;fontSize=30;fontFamily=Arial;fontStyle=2" parent="tpW0L4eKJtAbM24Pp-hq-6" vertex="1">
          <mxGeometry x="893.26" y="18.010000000000012" width="275.59" height="55.117999999999995" as="geometry" />
        </mxCell>
        <mxCell id="Izu4CDzaR0ki_h7jihql-160" value="&lt;p style=&quot;font-style: normal; margin: 0cm; font-size: 22px;&quot; class=&quot;MsoNormal&quot;&gt;&lt;i style=&quot;&quot;&gt;&lt;font style=&quot;font-size: 22px;&quot;&gt;Локальная компьютерная сеть.&lt;/font&gt;&lt;/i&gt;&lt;/p&gt;&lt;span style=&quot;font-style: normal; font-size: 22px;&quot; lang=&quot;RU&quot;&gt;&lt;i style=&quot;&quot;&gt;&lt;font style=&quot;font-size: 22px;&quot;&gt;Схема структурная&lt;/font&gt;&lt;/i&gt;&lt;/span&gt;" style="verticalAlign=middle;align=center;vsdxID=565;fillColor=none;gradientColor=none;shape=stencil(nZBLDoAgDERP0z3SIyjew0SURgSD+Lu9kMZoXLhwN9O+tukAlrNpJg1SzDH4QW/URgNYgZTkjA4UkwJUgGXng+6DX1zLfmoymdXo17xh5zmRJ6Q42BWCfc2oJfdAr+Yv+AP9Cb7OJ3H/2JG1HNGz/84klThPVCc=);strokeColor=none;spacingTop=-1;spacingBottom=-1;spacingLeft=-1;spacingRight=-1;labelBackgroundColor=none;rounded=0;html=1;whiteSpace=wrap;fontFamily=Arial;fontStyle=2" parent="tpW0L4eKJtAbM24Pp-hq-6" vertex="1">
          <mxGeometry x="1153.14" y="990.4500000000002" width="280" height="100" as="geometry" />
        </mxCell>
        <mxCell id="tpW0L4eKJtAbM24Pp-hq-5" value="Надписи" parent="0" />
        <mxCell id="tpW0L4eKJtAbM24Pp-hq-7" value="Связи" parent="0" />
        <mxCell id="tpW0L4eKJtAbM24Pp-hq-3" value="Сущности" parent="0" />
      </root>
    </mxGraphModel>
  </diagram>
</mxfile>
